<?xml version="1.0" encoding="UTF-8"?><svg xmlns="http://www.w3.org/2000/svg" viewBox="0 0 400 400"><defs><style>.cls-1{fill:#e5fc58;}.cls-2{fill:#222223;}</style></defs><g id="background"><rect class="cls-2" x="1.5" y="1.5" width="397" height="397"/></g><g id="logos"><g><g><g><polygon class="cls-1" points="242.74 270.75 242.74 270.8 242.72 270.77 242.74 270.75"/><path class="cls-1" d="M200.45,184.78h.29v-.38l-.29,.38Zm42.27,85.99l.02,.03v-.05l-.02,.02Z"/><path class="cls-1" d="M145.08,107.42l-17.64,17.64-23.58-30.99c-2.31-3.03-1.72-7.38,1.31-9.68l8.67-6.6c3.02-2.31,7.38-1.72,9.69,1.31l21.55,28.32Z"/><path class="cls-1" d="M294.82,315.62l-8.66,6.6c-1.25,.95-2.72,1.41-4.18,1.41-2.08,0-4.16-.94-5.5-2.72l-21.33-28.02,17.64-17.64,23.36,30.69c2.3,3.03,1.71,7.37-1.33,9.68Z"/></g><g><polygon class="cls-1" points="200.74 184.39 200.74 184.77 200.45 184.77 200.74 184.39"/><polygon class="cls-1" points="242.74 129.21 242.74 129.26 242.72 129.24 242.74 129.21"/><path class="cls-1" d="M242.72,129.24l.02,.02v-.05l-.02,.03Zm-42.27,55.54h.29v-.38l-.29,.38Z"/><path class="cls-1" d="M144.75,293.02l-21.22,27.89c-1.36,1.78-3.42,2.72-5.51,2.72-1.47,0-2.93-.46-4.18-1.41l-8.67-6.6c-3.03-2.31-3.62-6.65-1.31-9.68l23.25-30.56,17.64,17.64Z"/><path class="cls-1" d="M272.46,125.19l23.69-31.12c2.3-3.03,1.71-7.38-1.33-9.68l-8.66-6.6c-3.03-2.31-7.38-1.72-9.68,1.31l-21.66,28.45,17.64,17.64Z"/></g></g><path class="cls-1" d="M278.17,146.3l.57,.57v-.57h-.57Zm-35.45,124.47l.02,.03v-.05l-.02,.02Zm0-141.53l.02,.02v-.05l-.02,.03Zm-42.88-37.66h.15c.25,0,.5,.01,.75,.02v-.3c-.3,0-.59,.1-.9,.28Zm.61,93.2h.29v-.38l-.29,.38Z"/><g><path class="cls-1" d="M242.72,129.24l.02,.02v-.05l-.02,.03Zm-42.88-37.66h.15c.25,0,.5,.01,.75,.02v-.3c-.3,0-.59,.1-.9,.28Zm42.88,179.19l.02,.03v-.05l-.02,.02Zm-42.27-85.99h.29v-.38l-.29,.38Z"/><path class="cls-1" d="M242.72,270.77l.02,.03v-.05l-.02,.02Zm0-141.53l.02,.02v-.05l-.02,.03Zm-42.88-37.66h.15c.25,0,.5,.01,.75,.02v-.3c-.3,0-.59,.1-.9,.28Z"/></g><path class="cls-1" d="M160.45,221.36s-.03,.01-.05,.01l-.02-.03s.04,.01,.07,.02Z"/><path class="cls-1" d="M200.45,184.78h.29v-.38l-.29,.38Z"/><g><polygon class="cls-1" points="200.74 184.39 200.74 184.77 200.45 184.77 200.74 184.39"/><path class="cls-1" d="M200.45,184.78h.29v-.38l-.29,.38Zm0,0h.29v-.38l-.29,.38Zm0,0h.29v-.38l-.29,.38Zm-.61-93.2h.15c.25,0,.5,.01,.75,.02v-.3c-.3,0-.59,.1-.9,.28Zm.61,93.2h.29v-.38l-.29,.38Zm0,0h.29v-.38l-.29,.38Zm0,0h.29v-.38l-.29,.38Zm0,0h.29v-.38l-.29,.38Zm0,0h.29v-.38l-.29,.38Zm0,0h.29v-.38l-.29,.38Z"/></g><polygon class="cls-1" points="278.74 146.3 278.74 146.87 278.17 146.3 278.74 146.3"/><g><path class="cls-1" d="M200.74,211.39v.03h-.02l.02-.03Z"/><path class="cls-1" d="M200.72,211.43h.02v-.03l-.02,.03Zm0,0h.02v-.03l-.02,.03Zm0,0h.02v-.03l-.02,.03Zm0,0h.02v-.03l-.02,.03Zm0,0h.02v-.03l-.02,.03Zm0,0h.02v-.03l-.02,.03Zm-.27-26.65h.29v-.38l-.29,.38Zm.27,26.65h.02v-.03l-.02,.03Zm0,0h.02v-.03l-.02,.03Zm0,0h.02v-.03l-.02,.03Z"/></g><g><path class="cls-1" d="M160.45,221.36s-.03,.01-.05,.01l-.02-.03s.04,.01,.07,.02Z"/><path class="cls-1" d="M200.72,211.43h.02v-.03l-.02,.03Zm-40.34,9.91l.02,.03s.03-.01,.05-.01c-.03,0-.04,0-.07-.02Z"/></g><path class="cls-1" d="M314.03,182.17l-35.29-35.3-.57-.57-60.33-60.33c-4.93-4.93-11.39-7.39-17.85-7.39s-12.9,2.46-17.83,7.39l-30.32,30.33-2.5,2.5-2.5,2.49-10.15,10.15-2.49,2.5-48.23,48.23c-9.86,9.85-9.86,25.82,0,35.67l48.23,48.23,2.49,2.5,2.5,2.49,7.65,7.66,2.5,2.49,2.5,2.5,30.32,30.33c4.93,4.92,11.39,7.38,17.83,7.38s12.92-2.46,17.85-7.38l.73-.74,24.17-24.16,5.43-5.43,4.99-4.99,7.64-7.65,5-5,48.23-48.23c9.86-9.85,9.86-25.82,0-35.67Zm-9.19,26.48l-46.98,46.98-5,4.99-7.64,7.65-2.48,2.48v.05l-.02-.03-34.07,34.07c-2.13,2.13-4.92,3.38-7.91,3.56v-58.32h.04c1.25,0,2.49-.01,3.71-.02,1.43-.02,2.85-.04,4.25-.08h.08c.08,0,.15,0,.21-.01,1.39-.03,2.75-.08,4.1-.13,.15-.01,.29-.01,.42-.02,1.56-.06,3.09-.14,4.59-.23,6.72-.4,13.02-1.02,18.66-1.86,.52-.08,1.02-.16,1.52-.24,1.58-.25,3.04-.51,4.42-.78,4-.79,7.17-1.66,9.73-2.56h.01c.55-.17,1.18-.41,1.8-.71,1.96-.9,4.12-2.25,5.66-3.28,1.9-1.28,3.26-3.31,3.47-5.61,.49-5.45-5.55-7.71-12.13-4.58-2.73,1.29-5.62,2.25-8.54,3.06-.22,.06-.44,.12-.67,.18l-1.87,.5c-3.28,.66-7.07,1.23-11.27,1.69-1.54,.18-3.13,.33-4.76,.48h0c-1.52,.13-3.07,.25-4.67,.35-4.38,.3-9.04,.49-13.9,.57-.79,.01-1.57,.02-2.36,.03-.68,.01-1.37,.01-2.06,.01h-.43c-.65,0-1.29,0-1.92-.01-.67,0-1.35-.01-2.02-.02-.82-.01-1.62-.02-2.42-.04-4.89-.1-9.58-.33-13.96-.65-1.62-.12-3.18-.25-4.7-.4-1.65-.16-3.25-.33-4.79-.51-3.52-.43-6.73-.93-9.57-1.49-8.14-1.62-13.19-3.72-13.5-6.04v-.06c-.02-.06-.02-.11-.02-.17,0-2.31,4.73-4.44,12.56-6.08l-.02-.03s.04,.01,.07,.02h.02c.29-.06,.58-.12,.87-.19h.02c.25,.05,.5,.09,.75,.13,.38,.07,.75,.13,1.13,.19,5.5,.89,11.79,1.56,18.56,2,1.5,.1,3.04,.18,4.59,.25,.18,.01,.37,.02,.55,.03,1.3,.06,2.63,.11,3.98,.15,.1,.01,.19,.01,.28,.01,1.43,.05,2.87,.08,4.32,.1,1.72,.04,3.47,.05,5.22,.05h.04c1.25,0,2.49-.01,3.71-.02,1.46-.02,2.91-.04,4.33-.08,.08,0,.15,0,.21-.01,1.39-.03,2.75-.08,4.1-.13,.15-.01,.29-.01,.42-.02,1.56-.06,3.09-.14,4.59-.23,6.72-.4,13.02-1.02,18.66-1.86,.52-.08,1.02-.16,1.52-.24,1.58-.25,3.04-.51,4.42-.78,4-.79,7.17-1.66,9.73-2.56h.01c.63-.19,1.32-.47,2.04-.81,1.9-.91,3.93-2.19,5.42-3.18,1.9-1.28,3.26-3.31,3.47-5.61,.49-5.45-5.55-7.71-12.13-4.58-2.73,1.29-5.62,2.25-8.54,3.06-.22,.06-.44,.12-.67,.18l-1.87,.5c-.47,.1-.96,.19-1.46,.28-2.94,.54-6.22,1.02-9.81,1.41-1.54,.18-3.13,.33-4.76,.48h0c-1.52,.13-3.07,.25-4.67,.35-4.38,.3-9.04,.49-13.9,.57-.79,.01-1.57,.02-2.36,.03-.68,.01-1.37,.01-2.06,.01h-.43c-.65,0-1.29,0-1.92-.01-.38,0-.77,0-1.15-.01-.29,0-.58-.01-.87-.01-.82-.01-1.62-.02-2.42-.04-4.89-.1-9.58-.33-13.96-.65-1.62-.12-3.18-.25-4.7-.4-1.65-.16-3.25-.33-4.79-.51-3.52-.43-6.73-.93-9.57-1.49-4.2-.84-7.58-1.8-9.91-2.86-2.33-1.06-3.61-2.2-3.61-3.41,0-.07,0-.14,.02-.21h0c-.02-.05-.02-.08-.02-.12,0-2.3,4.65-4.4,12.35-6.03,.97-.21,1.98-.41,3.05-.6,.33,.05,.66,.1,.99,.15h.01c5.27,.82,11.21,1.44,17.56,1.85,1.5,.1,3.04,.18,4.59,.25,.18,.01,.37,.02,.55,.03,1.3,.06,2.63,.11,3.98,.15,.1,.01,.19,.01,.28,.01,1.43,.05,2.87,.08,4.32,.1,1.72,.04,3.47,.05,5.22,.05h.04c1.25,0,2.49-.01,3.71-.02,1.46-.02,2.91-.04,4.33-.08,.08,0,.15,0,.21-.01,1.39-.03,2.75-.08,4.1-.13,.15-.01,.29-.01,.42-.02,1.56-.06,3.09-.14,4.59-.23,6.72-.4,13.02-1.02,18.66-1.86,.52-.08,1.02-.16,1.52-.24,1.58-.25,3.04-.51,4.42-.78,4-.79,7.17-1.66,9.73-2.56h.01c2.32-.71,5.43-2.63,7.46-3.99,1.9-1.28,3.26-3.31,3.47-5.61,.49-5.45-5.55-7.71-12.13-4.58-2.73,1.29-5.62,2.25-8.54,3.06-.22,.06-.44,.12-.67,.18l-1.87,.5c-3.28,.66-7.07,1.23-11.27,1.69-1.54,.18-3.13,.33-4.76,.48h0c-1.52,.13-3.07,.25-4.67,.35-4.38,.3-9.04,.49-13.9,.57-.79,.01-1.57,.02-2.36,.03-.68,.01-1.37,.01-2.06,.01h-.43c-.65,0-1.29,0-1.92-.01-.67,0-1.35-.01-2.02-.02-.82-.01-1.62-.02-2.42-.04-4.89-.1-9.58-.33-13.96-.65-1.62-.12-3.18-.25-4.7-.4-1.65-.16-3.25-.33-4.79-.51-2.38-.29-4.61-.61-6.67-.97-1-.16-1.98-.34-2.9-.52-8.41-1.67-13.52-3.86-13.52-6.27s4.73-4.44,12.56-6.08c1.19-.25,2.48-.49,3.84-.73,1.25-.21,2.56-.41,3.94-.6,3.77-.52,7.98-.96,12.49-1.29,1.36-.1,2.77-.19,4.19-.27,1.38-.08,2.81-.14,4.25-.2,3.73-.15,7.63-.23,11.63-.23V91.6c-.25-.01-.5-.02-.75-.02h-.15c.31-.18,.6-.28,.9-.28v.3c2.99,.18,5.78,1.43,7.91,3.56l31.58,31.58,2.49,2.5,.02-.03v.05l2.48,2.47,7.64,7.65,5,5,1.92,1.92,45.06,45.06c4.77,4.77,4.77,12.52,0,17.29Zm-104.12,2.78l.02-.03v.03h-.02Zm-.27-26.65l.29-.38v.38h-.29Z"/><polygon class="cls-1" points="242.74 129.21 242.74 129.26 242.72 129.24 242.74 129.21"/><polygon class="cls-1" points="242.74 270.75 242.74 270.8 242.72 270.77 242.74 270.75"/></g></g></svg>